<svg height="682.66669pt" viewBox="-21 -21 682.66669 682.66669" width="682.66669pt" xmlns="http://www.w3.org/2000/svg"><path d="m640 125v203.824219c-14.261719-17.425781-31.132812-32.636719-50-45.042969v-158.78125c0-13.785156-11.214844-25-25-25h-5v-50h5c41.359375 0 75 33.640625 75 75zm-356.21875 465h-208.78125c-13.785156 0-25-11.214844-25-25v-440c0-13.785156 11.214844-25 25-25h55v50h50v-150h-50v50h-55c-41.359375 0-75 33.640625-75 75v440c0 41.359375 33.640625 75 75 75h253.824219c-17.425781-14.261719-32.636719-31.132812-45.042969-50zm-188.78125-393.75h448.75v50h-198.75v37.679688c-24.515625 16.46875-45.585938 37.6875-61.894531 62.320312h-38.105469v200h-150zm150 100h50v-50h-50zm-100 0h50v-50h-50zm0 100h50v-50h-50zm0 100h50v-50h-50zm495-27.5c0 94.429688-76.820312 171.25-171.25 171.25s-171.25-76.820312-171.25-171.25 76.820312-171.25 171.25-171.25 171.25 76.820312 171.25 171.25zm-50 0c0-66.855469-54.394531-121.25-121.25-121.25s-121.25 54.394531-121.25 121.25 54.394531 121.25 121.25 121.25 121.25-54.394531 121.25-121.25zm-97.347656-83.75h-50v94.535156l56.640625 55.730469 35.066406-35.640625-41.707031-41.039062zm-32.652344-235h50v-150h-50v50h-230v50h230zm0 0"/></svg>