<svg enable-background="new 0 0 512 512" height="512" viewBox="0 0 512 512" width="512" xmlns="http://www.w3.org/2000/svg"><g id="team"><path d="m256 281.59c27.369 0 52.72-8.58 73.52-23.189 13.88 14.221 33.04 23.189 54.48 23.189 42.42 0 76.8-34.395 76.8-76.79 0-42.4-35.13-78.1-79.351-76.73-11.819-58.465-63.47-102.47-125.449-102.47-61.96 0-113.62 44.005-125.45 102.47-44.94-1.11-79.351 34.33-79.351 76.73 0 42.395 34.4 76.79 76.801 76.79 21.439 0 40.6-8.98 54.5-23.189 20.79 14.609 46.14 23.189 73.5 23.189zm128-127.99c28.22 0 51.199 22.97 51.199 51.2 0 28.22-22.979 51.2-51.199 51.2-13.681 0-26.051-5.425-35.221-14.21 21.83-22.959 35.221-54.01 35.221-88.19zm-128-102.41c56.46 0 102.399 45.935 102.399 102.41 0 56.47-45.939 102.4-102.399 102.4s-102.4-45.93-102.4-102.4c0-56.475 45.94-102.41 102.4-102.41zm-128 204.81c-28.221 0-51.2-22.98-51.2-51.2 0-28.23 22.979-51.2 51.2-51.2 0 34.135 13.359 65.14 35.13 88.085-9.16 8.795-21.45 14.315-35.13 14.315zm384 153.6c0-70.705-57.301-128.01-128-128.01-19.24 0-37.36 4.465-53.69 12.16-21.76-7.879-49.18-12.16-74.31-12.16-26.51 0-48.19 4.775-71.521 13.5-17.04-8.52-36.14-13.5-56.479-13.5-70.7 0-128 57.305-128 128.01h66.029c-9.56 23.596-14.83 49.48-14.83 76.801h409.601c0-27.32-4.851-53.205-13.78-76.801zm-483.15-25.6c11.37-44.125 51.52-76.799 99.15-76.799 8.43 0 16.56 1.125 24.35 3.135-30.58 17.85-56.04 43.189-73.77 73.664zm49.73 76.801c12.319-87.951 87.449-153.6 181.09-153.6 91.529 0 162.46 64.449 173.91 153.6zm284.84-151.41c6.64-1.43 13.51-2.189 20.58-2.189 47.63 0 87.77 32.674 99.149 76.799h-47.88c-16.959-31.021-41.65-56.716-71.849-74.61z"/></g></svg>