<?xml version="1.0" encoding="UTF-8"?>
<svg xmlns="http://www.w3.org/2000/svg" id="icons" viewBox="0 0 60 60" width="512" height="512"><path d="M58,53.184V16a5.006,5.006,0,0,0-5-5H43a4.948,4.948,0,0,0-3,1.026V5a5.006,5.006,0,0,0-5-5H25a5.006,5.006,0,0,0-5,5V20.026A4.948,4.948,0,0,0,17,19H7a5.006,5.006,0,0,0-5,5V53.184A3,3,0,0,0,0,56v1a3,3,0,0,0,3,3H57a3,3,0,0,0,3-3V56A3,3,0,0,0,58,53.184ZM40,16a3,3,0,0,1,3-3H53a3,3,0,0,1,3,3V53H40ZM22,24V5a3,3,0,0,1,3-3H35a3,3,0,0,1,3,3V53H22ZM4,24a3,3,0,0,1,3-3H17a3,3,0,0,1,3,3V53H4ZM58,57a1,1,0,0,1-1,1H3a1,1,0,0,1-1-1V56a1,1,0,0,1,1-1H57a1,1,0,0,1,1,1Z"/><path d="M28,21a1,1,0,0,0,0,2h4a1,1,0,0,0,0-2H31V12a1,1,0,0,0-1.707-.707l-2,2a1,1,0,0,0,1.414,1.414L29,14.414V21Z"/><path d="M52,26a4,4,0,0,0-8,0,1,1,0,0,0,2,0,2,2,0,0,1,4,0c0,1.461-1.066,2.182-2.822,3.2C45.688,30.056,44,31.03,44,33a1,1,0,0,0,1,1h6a1,1,0,0,0,0-2H46.543a10.521,10.521,0,0,1,1.635-1.072C49.881,29.944,52,28.721,52,26Z"/><path d="M51,17H45a1,1,0,0,0,0,2h6a1,1,0,0,0,0-2Z"/><path d="M51,37H45a1,1,0,0,0,0,2h6a1,1,0,0,0,0-2Z"/><path d="M33,6H27a1,1,0,0,0,0,2h6a1,1,0,0,0,0-2Z"/><path d="M33,26H27a1,1,0,0,0,0,2h6a1,1,0,0,0,0-2Z"/><path d="M15,25H9a1,1,0,0,0,0,2h6a1,1,0,0,0,0-2Z"/><path d="M15,45H9a1,1,0,0,0,0,2h6a1,1,0,0,0,0-2Z"/><path d="M12.5,30A3.5,3.5,0,0,0,9,33.5a1,1,0,0,0,2,0A1.5,1.5,0,1,1,12.5,35a1,1,0,0,0,0,2A1.5,1.5,0,1,1,11,38.5a1,1,0,0,0-2,0A3.5,3.5,0,1,0,14.947,36,3.5,3.5,0,0,0,12.5,30Z"/></svg>
