<svg id="Layer_3" height="512" viewBox="0 0 24 24" width="512" xmlns="http://www.w3.org/2000/svg" data-name="Layer 3"><path d="m14.5 22.5h-6a2 2 0 0 1 0-4h6a4 4 0 0 0 0-8h-5.707l1.561 1.561a1.914 1.914 0 0 1 -2.708 2.707l-6-6a.5.5 0 0 1 0-.707l6-6a1.914 1.914 0 0 1 2.708 2.707l-1.733 1.732h5.879a8 8 0 0 1 0 16zm-6-3a1 1 0 0 0 0 2h6a7 7 0 0 0 0-14h-7.086a.5.5 0 0 1 -.353-.854l2.585-2.585a.914.914 0 0 0 -1.292-1.293l-5.647 5.646 5.647 5.647a.914.914 0 0 0 1.56-.647.905.905 0 0 0 -.268-.646l-2.414-2.414a.5.5 0 0 1 .354-.854h6.914a5 5 0 0 1 0 10z"/></svg>