<svg height="512" viewBox="0 0 512 512" width="512" xmlns="http://www.w3.org/2000/svg"><g id="Streaming-3" data-name="Streaming"><path d="m164 184a80 80 0 1 0 80 80 80.091 80.091 0 0 0 -80-80zm0 144a64 64 0 1 1 64-64 64.072 64.072 0 0 1 -64 64z"/><path d="m164 208a56 56 0 1 0 56 56 56.063 56.063 0 0 0 -56-56zm0 96a40 40 0 1 1 40-40 40.045 40.045 0 0 1 -40 40z"/><path d="m288 184h-40a8 8 0 0 0 -8 8v24a8 8 0 0 0 8 8h40a8 8 0 0 0 8-8v-24a8 8 0 0 0 -8-8zm-8 24h-24v-8h24z"/><path d="m64 328h-24a8 8 0 0 0 0 16h24a8 8 0 0 0 0-16z"/><path d="m96 328h-8a8 8 0 0 0 0 16h8a8 8 0 0 0 0-16z"/><path d="m64 304h-24a8 8 0 0 0 0 16h24a8 8 0 0 0 0-16z"/><path d="m496 184h-176v-16a8 8 0 0 0 -8-8h-78.584l-13.988-34.971a8 8 0 0 0 -7.428-5.029h-96a8 8 0 0 0 -7.428 5.029l-13.988 34.971h-78.584a8 8 0 0 0 -8 8v192a8 8 0 0 0 8 8h296a8 8 0 0 0 8-8v-16h176a8 8 0 0 0 8-8v-144a8 8 0 0 0 -8-8zm-374.583-48h85.166l9.6 24h-104.367zm182.583 216h-280v-176h280zm184-24h-168v-128h168z"/><path d="m336 296h16a8 8 0 0 0 0-16h-8v-40a8 8 0 0 0 -16 0v48a8 8 0 0 0 8 8z"/><path d="m376 296a8 8 0 0 0 8-8v-48a8 8 0 0 0 -16 0v48a8 8 0 0 0 8 8z"/><path d="m408.411 290.53a8 8 0 0 0 15.178 0l16-48a8 8 0 1 0 -15.178-5.06l-8.411 25.23-8.411-25.232a8 8 0 1 0 -15.178 5.06z"/><path d="m456 296h16a8 8 0 0 0 0-16h-8v-8h8a8 8 0 0 0 0-16h-8v-8h8a8 8 0 0 0 0-16h-16a8 8 0 0 0 -8 8v48a8 8 0 0 0 8 8z"/></g></svg>